<svg xmlns="http://www.w3.org/2000/svg" viewBox="0 0 64 64">
  <rect width="64" height="64" rx="12" fill="#fffafb"/>
  <path d="M30 5c-1.7 15.1-6.3 22.1-20 25 13.7 2.9 18.3 9.9 20 25 1.7-15.1 6.3-22.1 20-25C36.3 27.1 31.7 20.1 30 5Z" fill="none" stroke="#f2799a" stroke-width="2.8" stroke-linejoin="round"/>
  <path d="M52 9c-.5 4.3-1.9 6.3-5.8 7.1 3.9.8 5.3 2.8 5.8 7.1.5-4.3 1.9-6.3 5.8-7.1-3.9-.8-5.3-2.8-5.8-7.1Z" fill="#f2799a"/>
  <path d="M51 39c-.4 3.7-1.6 5.4-5 6.1 3.4.7 4.6 2.4 5 6.1.4-3.7 1.6-5.4 5-6.1-3.4-.7-4.6-2.4-5-6.1Z" fill="#f2799a"/>
</svg>
